<svg xmlns="http://www.w3.org/2000/svg" width="3000" height="3000" fill="none" viewBox="0 0 3000 3000" id="businessman-is-doing-market-research">
  <path fill="#FFC5A6" d="M981.092 1253.43C974.823 1327.26 958.71 1400.27 933.163 1469.88C925.487 1490.74 915.995 1512.53 897.42 1524.72C871.874 1541.54 838.182 1534.8 808.592 1526.77C808.417 1526.71 808.182 1526.66 808.006 1526.6C805.311 1544.82 804.256 1565.03 802.264 1585.07C801.444 1593.28 800.331 1601.71 795.878 1608.57C791.893 1614.72 785.565 1618.94 778.885 1621.93C778.475 1622.1 778.065 1622.28 777.655 1622.46C768.28 1626.5 758.085 1628.49 747.889 1628.37C736.17 1628.26 724.628 1625.27 713.378 1621.87C673.534 1609.86 635.506 1591.93 600.936 1568.78C622.967 1412.16 570.409 1298.2 583.651 1255.01C590.331 1233.39 602.167 1213.76 613.299 1194.08C629.061 1166.42 643.768 1138.06 662.635 1112.46C681.561 1086.85 705.057 1063.82 734.061 1050.64C767.46 1035.52 806.19 1034.53 841.756 1043.37C909.022 1060.13 967.557 1115.21 979.862 1183.35C984.022 1206.44 983.026 1230.05 981.092 1253.43Z"></path>
  <path fill="#203752" d="M711.621 1003.54C711.621 1003.54 598.242 948.46 538.476 1051.47C478.71 1154.48 512.46 1243.42 539.589 1304.77C566.777 1366.06 601.64 1463.44 601.64 1485.3C601.64 1485.3 688.417 1443.11 714.902 1337.41C714.902 1337.41 646.113 1313.91 673.066 1246.99C700.019 1180.08 795.41 1222.62 770.156 1375.67C770.156 1375.67 804.082 1279.28 829.394 1248.93C854.707 1218.64 875.273 1214.59 944.121 1226.19C1012.97 1237.8 1133.55 1197.54 1133.55 1048.71C1133.55 1048.71 1059.49 1066.7 1002.3 1052.05C918.925 1030.73 817.558 909.554 711.621 1003.54Z"></path>
  <path fill="#FF9F6B" d="M802.263 1585.08C801.442 1593.28 800.329 1601.72 795.876 1608.57C791.892 1614.72 785.563 1618.94 778.884 1621.93L720.817 1480.08C753.747 1507.56 808.005 1526.6 808.005 1526.6C808.005 1526.6 804.255 1565.04 802.263 1585.08Z"></path>
  <path fill="#FFC5A6" d="M1410.23 2029.39C1428.81 2059.69 1448.03 2093.49 1440.41 2127.65 1438.24 2137.26 1434.02 2146.4 1428.81 2154.9 1421.02 2167.56 1410.29 2179.45 1395.64 2184.61 1389.43 2186.83 1382.69 2187.71 1376.01 2187.54 1361.19 2187.19 1346.6 2181.5 1335.94 2171.95 1320.18 2157.83 1313.85 2136.03 1316.78 2115.88 1319.71 2095.72 1331.19 2077.2 1346.25 2062.44 1363.24 2045.8 1385.04 2033.32 1410.23 2029.39ZM1263.05 2195.92C1278.52 2239.1 1288.65 2285.04 1284.55 2330.68 1280.45 2376.33 1260.76 2421.91 1224.96 2450.56 1212.95 2460.17 1198.89 2467.91 1183.6 2469.2 1154.01 2471.72 1126.47 2448.51 1116.8 2420.39 1107.13 2392.32 1112.17 2361.09 1122.66 2333.26 1146.62 2269.51 1199.65 2217.3 1263.05 2195.92Z"></path>
  <path fill="#1B81A6" d="M1818.92 1515.06C1702.5 1646.31 1586.07 1777.62 1469.59 1908.87C1457.05 1900.67 1445.86 1894.34 1434.67 1887.95C1425.12 1882.5 1415.51 1877.06 1406.37 1870.9C1370.45 1846.76 1342.15 1812.54 1306.23 1788.46C1414.69 1648.89 1525.49 1522.74 1645.84 1388.97C1706.78 1426.82 1764.72 1469.42 1818.92 1515.06Z"></path>
  <path fill="#31DECD" d="M623.376 1571.72C623.376 1571.72 394.333 1595.28 290.857 1715.45C187.38 1835.63 246.794 2334.44 264.431 2493.87C264.431 2493.87 695.154 2556.62 944.587 2511.97L1206.68 2052.37C1206.68 2052.37 1121.72 1898.79 1089.31 1770.71C1056.91 1642.62 938.493 1576.41 794.939 1587.83L749.939 1616.19L623.376 1571.72Z"></path>
  <path fill="#1B81A6" d="M712.675 1671.98L765.878 1748.38L714.198 2267.47L883.476 2407.51L815.331 1741.65L831.796 1651.76L792.831 1602.31L752.401 1606.82L712.675 1671.98Z"></path>
  <path fill="#31DECD" d="M837.598 1706.72C848.789 1667.75 855.645 1627.56 857.93 1587.13C843.398 1565.92 826.406 1547.4 806.66 1532.58C804.844 1560.35 790.547 1586.31 768.984 1603.13C705.82 1574.36 646.055 1538.56 591.562 1496.08C569.414 1524.26 551.777 1554.84 536.602 1588.01C592.09 1646.78 657.715 1695.94 729.316 1732.91C735.41 1691.19 749.414 1650.65 770.918 1614.26C799.688 1638.63 819.141 1672.03 837.598 1706.72Z"></path>
  <path fill="#203752" d="M1568.67 1869.14C1461.15 1761.62 1311.74 1698.92 1311.74 1698.92L595.431 2548.71C654.2 2640.87 743.79 2713.06 846.329 2750.91 846.329 2750.91 1583.5 1883.96 1568.67 1869.14ZM1671.15 360.409C1227.83 650.976 1286.95 1259.65 1689.73 1531.58 2092.5 1803.51 2768.5 1541.07 2768.5 933.808 2768.5 321.093 2082.01 91.1123 1671.15 360.409ZM1768.42 1408.48C1450.02 1193.5 1403.26 712.323 1753.77 482.636 2078.55 269.765 2621.25 451.523 2621.25 935.917 2621.25 1415.98 2086.82 1623.46 1768.42 1408.48Z"></path>
  <path fill="#1B81A6" d="M1704.96 2131.93C1703.49 2196.45 1706.42 2261.02 1713.63 2325.18 1743.57 2323.59 1773.51 2321.95 1803.45 2320.37 1803.22 2255.1 1803.04 2189.77 1802.81 2124.49 1771.7 2125.08 1740.58 2125.72 1704.96 2131.93ZM1895.39 1972.62C1893.92 2090.33 1896.85 2208.17 1904.06 2325.18 1934 2322.25 1963.94 2319.32 1993.88 2316.45 1993.65 2197.27 1993.47 2078.15 1993.24 1958.97 1962.13 1960.14 1931.01 1961.25 1895.39 1972.62ZM2085.82 2040.41C2084.35 2135.51 2087.28 2230.72 2094.49 2325.29 2124.43 2322.95 2154.37 2320.54 2184.31 2318.2 2184.08 2221.93 2183.9 2125.66 2183.67 2029.39 2152.56 2030.33 2121.44 2031.21 2085.82 2040.41ZM2282.11 1848.52C2280.64 2007.66 2283.57 2167.03 2290.78 2325.18 2320.72 2321.25 2350.66 2317.27 2380.6 2313.34 2380.37 2152.27 2380.19 1991.13 2379.96 1830.06 2348.85 1831.58 2317.73 1833.17 2282.11 1848.52ZM2487.19 1662.42C2485.72 1879.8 2488.65 2109.2 2495.86 2325.29 2525.8 2319.9 2555.74 2314.51 2585.68 2309.12 2585.45 2089.04 2585.27 1868.96 2585.04 1648.95 2553.92 1651 2522.69 1645.96 2487.19 1662.42Z"></path>
  <path fill="#31DECD" d="M536.366 1778.32C607.265 1848.05 655.077 1937.17 709.277 2020.55C762.245 2101.99 822.011 2178.93 887.87 2250.35C895.312 2258.44 903.046 2266.58 912.714 2271.74C923.437 2277.42 935.741 2279.12 947.812 2280.53C1027.44 2289.9 1107.71 2293.18 1187.81 2290.43C1190.8 2290.31 1193.96 2290.25 1196.6 2291.66C1200.18 2293.59 1201.87 2297.7 1203.16 2301.5C1225.9 2367.48 1213.36 2444.47 1167.89 2500.14C1090.6 2510.21 1013.2 2519 935.624 2526.45C899.472 2529.9 862.792 2533.07 826.991 2526.91C754.159 2514.32 693.808 2465.1 637.968 2416.76C542.577 2334.2 448.359 2247.66 380.331 2141.43C355.019 2101.88 332.87 2054.12 346.874 2009.24C353.261 1988.79 366.62 1971.33 380.097 1954.69C430.546 1892.7 486.796 1835.33 536.366 1778.32Z"></path>
  <path fill="#FFC5A6" d="M1376.01 2187.59C1350.23 2187.59 1322.46 2174.23 1307.4 2162.22C1292.34 2150.21 1280.21 2134.98 1268.73 2119.51C1258.94 2106.32 1248.98 2090.5 1253.08 2074.63C1257.3 2058.34 1274.35 2049.37 1289.71 2042.4C1300.49 2037.48 1311.8 2032.5 1323.63 2032.73C1336.87 2033.02 1349 2039.88 1360.08 2047.14C1375.84 2057.52 1390.66 2069.23 1404.49 2082.13C1409.59 2086.87 1414.8 2092.2 1416.39 2099C1418.14 2106.56 1415.04 2114.35 1411.64 2121.32C1399.92 2144.94 1399.57 2170.19 1376.01 2187.59Z"></path>
  <path fill="#203752" d="M544.337 1601.08C603.458 1647.66 662.58 1694.18 721.701 1740.76C724.982 1743.34 730.372 1742.81 731.486 1738.13C741.095 1696.58 755.978 1656.62 776.076 1619.01C773.029 1619.42 769.923 1619.83 766.876 1620.29C793.185 1653.69 819.552 1687.09 845.861 1720.49C848.908 1724.3 854.298 1721.43 855.646 1717.85C870.88 1677.89 875.04 1634.71 868.244 1592.52C867.013 1585.08 855.705 1588.07 856.876 1595.45C863.38 1635.65 858.81 1676.78 844.337 1714.81C847.619 1713.93 850.841 1713.05 854.123 1712.17C827.814 1678.77 801.447 1645.37 775.138 1611.97C772.794 1608.99 767.521 1610.22 765.939 1613.26C745.431 1651.7 730.021 1692.66 720.236 1735.14C723.517 1734.26 726.74 1733.38 730.021 1732.5C670.9 1685.92 611.779 1639.4 552.658 1592.81C546.74 1588.13 538.419 1596.45 544.337 1601.08Z"></path>
  <path fill="#203752" d="M736.056 1715.21C741.974 1719.72 746.486 1725.29 750.002 1731.85C751.759 1735.07 753.283 1738.41 754.572 1741.81C755.802 1744.98 756.857 1748.31 760.021 1750.07C763.361 1751.95 767.463 1751.07 771.095 1750.78C775.548 1750.42 780.002 1750.01 784.396 1749.66C793.302 1748.9 802.15 1748.2 811.056 1747.44C813.634 1747.2 816.095 1745.8 816.74 1743.1C821.017 1725.11 825.939 1707.24 831.505 1689.55C833.791 1682.34 822.423 1679.35 820.197 1686.5C814.63 1704.19 809.709 1722.01 805.431 1740.05C807.306 1738.59 809.24 1737.18 811.115 1735.72C802.794 1736.42 794.474 1737.12 786.095 1737.83C782.228 1738.18 778.302 1738.47 774.435 1738.82C772.209 1739 769.982 1739.23 767.755 1739.35C766.818 1739.47 765.939 1739.53 765.002 1739.53C766.408 1740.87 766.877 1741.17 766.466 1740.4C766.877 1740.11 763.009 1731.85 762.599 1730.97C761.252 1728.04 759.728 1725.11 758.029 1722.36C754.337 1716.44 749.826 1711.11 744.259 1706.83C741.74 1704.9 738.4 1704.43 735.998 1706.89C733.947 1708.94 733.537 1713.33 736.056 1715.21Z"></path>
  <path fill="#203752" d="M756.679 1755.82C752.285 1802.87 748.535 1850.04 745.371 1897.21 744.843 1904.77 756.621 1904.77 757.09 1897.27 760.254 1850.1 764.004 1802.99 768.398 1755.88 769.101 1748.32 757.382 1748.38 756.679 1755.82ZM810.056 1746.92C819.549 1871.78 835.486 1996 848.728 2120.45 851.424 2145.59 854.002 2170.73 855.935 2195.86 856.521 2203.36 868.24 2203.42 867.654 2195.92 858.982 2082.37 842.869 1969.34 831.502 1856.02 827.869 1819.69 824.529 1783.36 821.775 1746.98 821.189 1739.48 809.47 1739.36 810.056 1746.92ZM709.747 2478.81C656.309 2429.59 602.931 2380.37 549.493 2331.15 502.852 2288.14 456.212 2244.72 415.899 2195.62 393.165 2167.91 372.774 2138.38 355.899 2106.74 352.325 2100.06 342.188 2105.97 345.763 2112.6 375.645 2168.55 416.602 2217.6 460.899 2262.71 508.477 2311.11 559.454 2356.23 609.317 2402.22 640.079 2430.53 670.782 2458.88 701.544 2487.19 707.052 2492.28 715.313 2483.96 709.747 2478.81Z"></path>
  <path fill="#203752" d="M402.951 1721.13C455.802 1725.29 502.091 1755.59 540.119 1790.62 575.041 1822.85 605.216 1859.94 632.697 1898.61 687.834 1976.19 732.834 2060.62 789.728 2136.97 821.31 2179.34 856.525 2219 897.892 2252.05 903.693 2256.68 912.013 2248.42 906.095 2243.73 830.099 2183.09 776.427 2101.23 725.334 2019.78 674.181 1938.22 623.849 1854.2 553.595 1787.28 512.111 1747.73 461.544 1714.04 403.009 1709.41 395.451 1708.83 395.451 1720.55 402.951 1721.13ZM946.409 2153.49C966.448 2048.84 965.686 1940.91 944.006 1836.62 942.483 1829.23 931.116 1832.22 932.639 1839.55 953.909 1941.79 954.729 2047.85 935.042 2150.44 933.694 2157.88 945.002 2160.93 946.409 2153.49ZM1608.63 2407.15C1758.81 2396.43 1909.22 2389.11 2059.63 2382.02 2211.86 2374.81 2364.08 2367.9 2516.13 2358.11 2600.33 2352.66 2684.47 2346.33 2768.44 2338.48 2775.88 2337.78 2776 2326.06 2768.5 2326.76 2618.61 2340.77 2468.32 2349.97 2317.97 2357.76 2165.8 2365.67 2013.52 2372.06 1861.35 2380.02 1777.09 2384.48 1692.83 2389.4 1608.69 2395.38 1601.25 2395.96 1601.13 2407.68 1608.63 2407.15ZM1760.57 1997.94C1814.65 1950.88 1868.79 1903.89 1922.87 1856.84 1928.67 1851.8 1936.35 1841.78 1944.78 1845.65 1952.75 1849.34 1960.02 1855.85 1967.17 1860.88 1981.23 1870.79 1995.18 1880.75 2009.12 1890.77 2038.12 1911.69 2066.95 1932.9 2095.49 1954.46 2102.34 1959.61 2109.14 1964.77 2115.94 1969.99 2121.21 1974.03 2127.01 1979.71 2134.28 1977.84 2140.02 1976.37 2143.42 1971.1 2146.7 1966.65 2152.09 1959.38 2157.48 1952.11 2162.93 1944.91 2183.32 1918.13 2204.65 1892.06 2226.5 1866.51 2270.33 1815.3 2316.56 1766.2 2363.26 1717.68 2418.57 1660.14 2474.18 1602.95 2529.67 1545.59 2534.88 1540.2 2526.56 1531.94 2521.35 1537.39 2424.78 1637.17 2325.76 1735.2 2234.3 1839.73 2212.15 1865.04 2190.53 1890.83 2169.67 1917.31 2159.53 1930.2 2149.51 1943.27 2139.78 1956.51 2137.5 1959.61 2135.27 1964.6 2131.41 1965.36 2127.77 1966.06 2122.5 1960.49 2119.63 1958.27 2112.77 1953.05 2105.92 1947.84 2099 1942.68 2070.82 1921.41 2042.4 1900.49 2013.75 1879.87 1999.45 1869.56 1985.04 1859.3 1970.62 1849.17 1960.02 1841.72 1946.54 1828.19 1932.54 1834.58 1924.92 1838.09 1918.59 1845.18 1912.38 1850.57 1905.06 1856.9 1897.73 1863.29 1890.47 1869.61 1875.12 1882.97 1859.77 1896.33 1844.41 1909.63 1813.71 1936.35 1783.01 1963.01 1752.3 1989.73 1746.5 1994.65 1754.88 2002.92 1760.57 1997.94ZM1563.52 1042.27C1603.01 1042.38 1642.44 1042.56 1681.93 1042.68 1683.99 1042.68 1686.04 1041.56 1687.03 1039.75 1738.3 945.527 1796.43 855.175 1860.88 769.453 1857.48 769.453 1854.08 769.453 1850.74 769.453 1933.83 877.441 2021.95 981.562 2115 1081.17 2140.66 1108.65 2166.8 1135.9 2187.89 1167.19 2189.77 1170 2194.63 1171.58 2197.15 1168.36 2257.09 1091.02 2316.39 1013.14 2374.98 934.804 2372.34 935.507 2369.65 936.269 2367.01 936.972 2406.86 964.043 2446.41 991.523 2486.25 1018.59 2500.78 1028.5 2515.31 1038.34 2530.08 1047.83 2538.4 1053.22 2546.9 1059.2 2556.09 1063.07 2562.95 1066 2568.87 1055.8 2561.9 1052.87 2552.7 1049 2544.26 1043.03 2535.88 1037.64 2521.11 1028.14 2506.58 1018.3 2492.05 1008.4 2452.21 981.328 2412.66 953.847 2372.81 926.777 2370 924.843 2366.6 926.601 2364.84 928.945 2306.84 1006.46 2248.18 1083.52 2188.89 1160.1 2191.99 1160.51 2195.04 1160.86 2198.15 1161.27 2179.75 1134.02 2157.72 1109.59 2135.27 1085.62 2112.19 1060.9 2089.16 1036.05 2066.6 1010.86 2021.13 960.175 1976.84 908.437 1933.83 855.586 1909.1 825.234 1884.84 794.589 1861 763.535 1858.13 759.785 1853.67 759.726 1850.86 763.535 1786.41 849.257 1728.28 939.609 1677.01 1033.83 1678.71 1032.83 1680.41 1031.84 1682.11 1030.9 1642.62 1030.78 1603.18 1030.61 1563.69 1030.49 1556.02 1030.55 1556.02 1042.27 1563.52 1042.27Z"></path>
  <path fill="#203752" d="M1621.64 1205.34C1653.75 1209.91 1689.61 1213.95 1717.33 1193.27 1731.45 1182.72 1742.35 1168.07 1753.42 1154.54 1765.2 1140.06 1776.68 1125.36 1787.87 1110.47 1810.72 1080 1832.29 1048.54 1852.5 1016.25 1857.31 1008.58 1862.05 1000.84 1866.68 993.051 1871.13 985.551 1875.29 976.352 1883.38 972.074 1890.94 968.031 1900.55 967.797 1908.87 966.625 1919.42 965.16 1929.96 963.637 1940.51 962.172 2021.08 950.805 2101.7 939.906 2182.15 928.012 2189.01 927.016 2195.86 925.551 2201.25 920.922 2207.46 915.649 2210.74 907.856 2214.32 900.707 2223.52 882.426 2232.72 864.203 2241.92 845.922 2260.31 809.418 2278.71 772.914 2297.11 736.41 2307.19 716.43 2317.27 696.449 2327.35 676.41 2337.42 656.371 2346.92 635.805 2357.76 616.176 2363.32 606.098 2373.46 606.742 2383.65 605.746 2395.2 604.633 2406.74 603.52 2418.28 602.465 2441.37 600.238 2464.45 598.07 2487.6 595.844 2495.04 595.141 2495.16 583.422 2487.66 584.125 2467.44 586.059 2447.23 587.992 2427.01 589.926 2407.79 591.742 2388.22 592.68 2369.12 595.551 2350.67 598.305 2345.69 613.949 2338.13 628.891 2328.93 647.172 2319.73 665.395 2310.53 683.676 2274.2 755.805 2238.22 828.168 2201.49 900.121 2197.74 907.445 2194.16 913.481 2185.72 915.531 2176.12 917.875 2165.92 918.52 2156.13 919.926 2135.98 922.797 2115.88 925.61 2095.72 928.481 2055.47 934.164 2015.16 939.848 1974.9 945.59 1955.22 948.344 1935.59 951.156 1915.9 953.91 1900.08 956.137 1880.92 956.02 1869.08 968.442 1863.87 973.949 1860.29 980.805 1856.43 987.25 1851.33 995.805 1846.12 1004.3 1840.78 1012.8 1830.65 1028.91 1820.16 1044.85 1809.38 1060.55 1785 1095.94 1758.99 1130.22 1731.21 1162.97 1718.32 1178.21 1704.67 1190.98 1684.63 1195.43 1665 1199.77 1644.26 1196.96 1624.57 1194.14 1617.25 1192.97 1614.14 1204.28 1621.64 1205.34ZM1858.42 787.27C1870.29 787.27 1879.92 778.01 1879.92 766.587 1879.92 755.164 1870.29 745.903 1858.42 745.903 1846.54 745.903 1836.91 755.164 1836.91 766.587 1836.91 778.01 1846.54 787.27 1858.42 787.27ZM1685.04 1052C1696.92 1052 1706.54 1042.73 1706.54 1031.31 1706.54 1019.89 1696.92 1010.63 1685.04 1010.63 1673.16 1010.63 1663.54 1019.89 1663.54 1031.31 1663.54 1042.73 1673.16 1052 1685.04 1052Z"></path>
  <path fill="#203752" d="M1706.54 1221.86C1718.42 1221.86 1728.05 1212.6 1728.05 1201.18 1728.05 1189.75 1718.42 1180.49 1706.54 1180.49 1694.67 1180.49 1685.04 1189.75 1685.04 1201.18 1685.04 1212.6 1694.67 1221.86 1706.54 1221.86ZM1873.54 988.949C1885.41 988.949 1895.04 979.689 1895.04 968.266 1895.04 956.842 1885.41 947.582 1873.54 947.582 1861.66 947.582 1852.03 956.842 1852.03 968.266 1852.03 979.689 1861.66 988.949 1873.54 988.949ZM2195.39 1184.94C2207.26 1184.94 2216.89 1175.68 2216.89 1164.26 2216.89 1152.83 2207.26 1143.57 2195.39 1143.57 2183.51 1143.57 2173.88 1152.83 2173.88 1164.26 2173.88 1175.68 2183.51 1184.94 2195.39 1184.94ZM2369.88 952.614C2381.76 952.614 2391.39 943.354 2391.39 931.931 2391.39 920.507 2381.76 911.247 2369.88 911.247 2358.01 911.247 2348.38 920.507 2348.38 931.931 2348.38 943.354 2358.01 952.614 2369.88 952.614ZM2359.1 631.287C2370.98 631.287 2380.61 622.027 2380.61 610.604 2380.61 599.18 2370.98 589.92 2359.1 589.92 2347.23 589.92 2337.6 599.18 2337.6 610.604 2337.6 622.027 2347.23 631.287 2359.1 631.287ZM2195.39 938.618C2207.26 938.618 2216.89 929.358 2216.89 917.935 2216.89 906.511 2207.26 897.251 2195.39 897.251 2183.51 897.251 2173.88 906.511 2173.88 917.935 2173.88 929.358 2183.51 938.618 2195.39 938.618Z"></path>
</svg>
